<svg xmlns="http://www.w3.org/2000/svg" xmlns:xlink="http://www.w3.org/1999/xlink" viewBox="0 0 220 77.68"><defs><style>.cls-1{fill:url(#linear-gradient);}.cls-2{fill:url(#linear-gradient-2);}.cls-3{fill:url(#linear-gradient-3);}</style><linearGradient id="linear-gradient" x1="86.38" y1="3.58" x2="210.34" y2="61.38" gradientUnits="userSpaceOnUse"><stop offset="0" stop-color="#0076dd"/><stop offset="1" stop-color="#e600e9"/></linearGradient><linearGradient id="linear-gradient-2" x1="-6.07" y1="26.57" x2="71.17" y2="62.58" xlink:href="#linear-gradient"/><linearGradient id="linear-gradient-3" x1="90.84" y1="36.37" x2="207.52" y2="90.77" xlink:href="#linear-gradient"/></defs><g id="Layer_2" data-name="Layer 2"><g id="Layer_1-2" data-name="Layer 1"><g id="f53b28fe-f262-44c8-b78f-9b883d5028a8"><path class="cls-1" d="M86.87,16h0Q89.6,13.82,91,13.82h0q1.4,0,4.36,2.7h0a15.05,15.05,0,0,1,3.68,4.41h0a18.66,18.66,0,0,1,.47,5.46h0v4.9h0c0,2.9-.16,4.71-.47,5.42h0a14.43,14.43,0,0,1-3.62,4.15h0q-2.85,2.51-4.51,2.5h-8.6V25.59h0a16.38,16.38,0,0,0-.47-4.71h0a11.2,11.2,0,0,0-2-3.27h0l5.49-3.79h0A5.53,5.53,0,0,1,86.87,16Zm4.06,3.8h0a7.88,7.88,0,0,0-3,.77h0a24.47,24.47,0,0,1,.11,2.67h0V38.34h2.88a2.19,2.19,0,0,0,1.39-.86h0a5.25,5.25,0,0,0,1.13-1.6h0a14.88,14.88,0,0,0,.33-4.18h0V26.39h0a14.88,14.88,0,0,0-.33-4.18h0a5.73,5.73,0,0,0-1.13-1.63h0A2.26,2.26,0,0,0,90.93,19.75Zm25-5.46h5.73v17h0a18.82,18.82,0,0,1-.45,5.42h0a14.42,14.42,0,0,1-3.68,4.42h0c-2,1.82-3.47,2.73-4.48,2.73h0c-1,0-2.47-.91-4.44-2.73h0A14.42,14.42,0,0,1,105,36.71h0a18.82,18.82,0,0,1-.45-5.42h0v-6h0a15.43,15.43,0,0,0-.5-4.74h0a11.47,11.47,0,0,0-2-3.23h0l5-3.47h0a6.91,6.91,0,0,1,2.29,3.38h0a16.92,16.92,0,0,1,.95,6h0v8.1h0a15.52,15.52,0,0,0,.32,4.18h0a5.7,5.7,0,0,0,1.13,1.6h0a2.26,2.26,0,0,0,1.39.86h0a2.19,2.19,0,0,0,1.4-.86h0a5.48,5.48,0,0,0,1.16-1.6h0a15.52,15.52,0,0,0,.32-4.18h0Zm26,5.67v5.72h7.45v5h-7.45v7.65h9.94v5H136.22V17.79l5.72-4h9.28v5h-7.74Zm17.91,21.29v2.11h-5.48V41.25h0a17.57,17.57,0,0,1,.56-5.43h0a18,18,0,0,1,3.62-4.62h0a20.41,20.41,0,0,1-3.38-4.66h0a13,13,0,0,1-.59-4.69h0V21h5.48v.86h0a11.05,11.05,0,0,0,.33,3.24h0a13.7,13.7,0,0,0,1,2.16h0c.47.83.79,1.25.95,1.25h0c.17,0,.49-.42.94-1.25h0a13.7,13.7,0,0,0,1-2.16h0a10.18,10.18,0,0,0,.36-3.24h0V21h5.46v.86h0a13.41,13.41,0,0,1-.45,4.36h0a22.5,22.5,0,0,1-3.56,5h0a31.82,31.82,0,0,1,2.37,2.72h0A10.68,10.68,0,0,1,170,36.3h0a20.26,20.26,0,0,1,.35,5h0v2.11h-5.45V41.25h0a13.1,13.1,0,0,0-.36-4h0a6.71,6.71,0,0,0-1.1-2h0c-.53-.77-.91-1.16-1.12-1.16h0c-.2,0-.57.39-1.1,1.16h0a11.37,11.37,0,0,0-1.1,2h0a15.61,15.61,0,0,0-.3,4ZM184.8,21h4.06V38h0a4.07,4.07,0,0,0,2,2.58h0l-3.74,3.17h0a7.05,7.05,0,0,1-1.33-1.3h0a14.54,14.54,0,0,1-1.31-2h0q-3.47,3.35-4.83,3.35h0c-.66,0-1.72-.73-3.21-2.19h0a11.9,11.9,0,0,1-2.75-3.56h0a19.23,19.23,0,0,1-.57-5.93h0q0-4.55.57-5.91h0a11.69,11.69,0,0,1,2.75-3.59h0c1.49-1.46,2.55-2.19,3.21-2.19h0q1.45,0,4.68,3h0Zm-1.69,6.32h0a3.77,3.77,0,0,0-1.19-1.07h0a3,3,0,0,0-1.36-.56h0a1.48,1.48,0,0,0-1,.53h0a3.25,3.25,0,0,0-.69,1h0c-.35.5-.53,2.15-.53,5h0c0,2.8.18,4.45.53,5h0a4.06,4.06,0,0,0,.69,1h0a1.46,1.46,0,0,0,1,.56h0a3,3,0,0,0,1.36-.56h0a3.83,3.83,0,0,0,1.16-1h0a22,22,0,0,0,.32-4.87h0A20.31,20.31,0,0,0,183.11,27.31Zm25.68,0v16h-5.46V27.93h0a2.17,2.17,0,0,0-.77-1.48h0a2,2,0,0,0-1.24-.77h0a3.37,3.37,0,0,0-1.69,1h0V43.36h-5.49V29h0a8.32,8.32,0,0,0-.51-3.26h0a5.16,5.16,0,0,0-1.57-2.05h0l4.57-3.2h0a9.63,9.63,0,0,1,2.05,2.37h0q2.7-2.4,3.73-2.4h0a4.57,4.57,0,0,1,2,.92h0A12.8,12.8,0,0,1,207,23.6h0c2.19-2.07,3.71-3.11,4.54-3.11h0q1.27,0,3.82,2.31h0q2.55,2.29,2.55,4.54h0v8h0a8.42,8.42,0,0,0,.51,3.29h0a5.31,5.31,0,0,0,1.57,2h0l-4.57,3.2h0a8.14,8.14,0,0,1-3-6.73h0v-9.2h0a2.21,2.21,0,0,0-.77-1.48h0c-.5-.51-.9-.77-1.22-.77h0a4,4,0,0,0-1.75,1h0a4.62,4.62,0,0,1,.06.62Z"/></g><g id="_9e987eb7-10ba-48cf-9da8-fd6387f0af5d" data-name="9e987eb7-10ba-48cf-9da8-fd6387f0af5d"><path class="cls-2" d="M33.42,0,0,13.55,33.42,27.1,66.84,13.55ZM1.81,16.23v9.45a4.45,4.45,0,0,1,1.8-.39,4.43,4.43,0,0,1,1.81.4v-8Zm13.54,5.48v8.77c0,2.74,8.06,5.65,18.07,5.65s18.06-2.91,18.06-5.65V21.71L34.1,28.76a1.78,1.78,0,0,1-1.36,0L15.35,21.7ZM3.61,27.1a2.71,2.71,0,1,0,2.71,2.71A2.71,2.71,0,0,0,3.61,27.1Zm14.51,8.21c.44,8.77,6.65,18.88,15.3,18.88s14.85-10.11,15.3-18.88c-.61.26-1.25.5-1.95.73a44,44,0,0,1-13.35,1.9A44,44,0,0,1,20.07,36a19.93,19.93,0,0,1-1.95-.73Zm15.3,24.3c-17,0-30.71,8.28-30.71,18.07H64.13C64.13,67.89,50.43,59.61,33.42,59.61Z"/></g><g id="_67507aec-b4a3-44c0-b884-501bd6cce770" data-name="67507aec-b4a3-44c0-b884-501bd6cce770"><path class="cls-3" d="M85.85,68.8h0a3.52,3.52,0,0,1-.58.55h0l-.25.16h0a.57.57,0,0,1-.18.12h0c-.11.08-.17.11-.17.1h0l-.33.16h0a.34.34,0,0,1-.13,0h0s-.07,0-.18.09h0a.4.4,0,0,0-.15,0h0a.46.46,0,0,0-.15,0h0l-.32.06h0a.66.66,0,0,1-.28.07h0l-.08,0h-.2l-.33,0h-.25c.09-.29.33-1.43.73-3.4h0a2.81,2.81,0,0,0,1-.32h0l.44-.2h0a2.1,2.1,0,0,1,.35-.14h0s0,0,0,0h0l.13,0h0l.14,0h0l.13,0h.4a1.36,1.36,0,0,1,.39.17h0a1.07,1.07,0,0,1,.37,1h0a2.47,2.47,0,0,1-.55,1.51Zm-.63-5.34h0a9.88,9.88,0,0,1-2,2.31h0c.15-.66.38-1.5.67-2.53h0q1.22-4.26,1.51-5.93h0a3.42,3.42,0,0,1,1,2.3h0a6.69,6.69,0,0,1-1.21,3.85Zm.53,1.82h0a11.5,11.5,0,0,0,1.78-2.15h0a6.81,6.81,0,0,0,1.29-4.4h0A3.3,3.3,0,0,0,87,56h0a5.68,5.68,0,0,0-4.34-.12h0c-.81.23-1.18.46-1.13.68h0c.08.27.51.28,1.31.05h0c.2-.06.27-.09.22-.06h0l.11,0h.17a.88.88,0,0,0,0,.15h0a57,57,0,0,1-1.69,7.07h0c-.39,1.34-.69,2.51-.9,3.48h0l-.81,3.78h0c-.06.2.11.29.5.28h0a.58.58,0,0,0,.31.08h0a11.34,11.34,0,0,0,5.26-1.19h0q2.67-1.27,2.9-3.32h0q.21-2.12-3.07-1.51Zm17.91,2.92h0c-.51.69-.83,1.11-1,1.28h0l-.12-.3h0a5.83,5.83,0,0,1-.11-2.74h0a12,12,0,0,1,.86-3h0a13.16,13.16,0,0,1,.58-1.2h0a3.58,3.58,0,0,1,.5-.66h0a5.65,5.65,0,0,1,.66-.56h0l0,0h0l.06,0h0l.2-.13h0l0,0h0c.22.19.32.63.28,1.33h0c0,.12.22.16.7.11h0c-.12.6-.31,1.4-.55,2.39h0a17.59,17.59,0,0,1-2.14,3.53Zm5.18-6.9h0c0-.14-.26-.18-.77-.13h0c0-.66-.23-1.08-.64-1.26h0a3.45,3.45,0,0,0-2.67.27h0a6.3,6.3,0,0,0-3.34,2.72h0A11.21,11.21,0,0,0,100,68.62h0a2.46,2.46,0,0,0,.85,2.15h0a2.13,2.13,0,0,0,1.38.12h0a3.94,3.94,0,0,0,1.7-.68h0a5.22,5.22,0,0,0,.9-.78h0c-.09.62-.15,1.21-.2,1.76h0c0,.08.12.12.37.15h0a4.34,4.34,0,0,0,.81-.09h0c.81-.15,1.22-.39,1.24-.71h0a40.86,40.86,0,0,1,1.16-6.27h0a8.73,8.73,0,0,0,.67-3ZM126.66,60h0c-.6,0-1.33,0-2.19,0h0c.3-.94.66-2,1.08-3.13h0c.11-.28-.21-.35-1-.22h0c-.84.16-1.32.38-1.43.67h0c-.35,1-.66,1.88-.94,2.72h-.58a3.13,3.13,0,0,0-1.71.46h0c-.2.12-.29.24-.26.35h0c0,.11.16.17.39.17h0l1.88,0h0a31.55,31.55,0,0,0-.85,3.46h0c-.07.41-.15.94-.25,1.58h0c-.12.85-.2,1.38-.23,1.58h0a5.08,5.08,0,0,0,.2,2.9h0a1.48,1.48,0,0,0,1.39,1h0a3.87,3.87,0,0,0,2.79-1.1h0a6,6,0,0,0,1.67-3.55h0c0-.06-.11-.1-.36-.11h0a2.62,2.62,0,0,0-.81.06h0c-.8.15-1.22.38-1.26.7h0a5.68,5.68,0,0,1-1,2.45h0a3.45,3.45,0,0,1-.33-1.24h0a10.54,10.54,0,0,1,.23-2.52h0c0-.21.11-.73.24-1.56h0c.1-.64.19-1.17.28-1.57h0c.14-.68.31-1.38.51-2.11h0c.35,0,.64,0,.9,0h0a3,3,0,0,0,1.71-.45h0c.19-.12.28-.24.24-.35h0c0-.11-.16-.17-.38-.18Zm16.25.16Zm2.71-.28h0a2.68,2.68,0,0,0-2.44-.53h0a5.8,5.8,0,0,0-3,1.43h0A7.45,7.45,0,0,0,138,65.4h0a8.09,8.09,0,0,0,.37,5h0c.53,1,1.63,1.26,3.3.71h0a4.93,4.93,0,0,0,2.78-2.3h0q.14-.24-.36-.27h0a2.36,2.36,0,0,0-.61,0h0c-.77.13-1.24.35-1.41.65h0a5.65,5.65,0,0,1-.67.91h0l-.16.13h0a1.76,1.76,0,0,1-.55-.69h0a6.34,6.34,0,0,1-.45-2.46h0a12.08,12.08,0,0,1,.22-2.6h0a10,10,0,0,1,.81-2.51h0a4.38,4.38,0,0,1,1.38-1.69h0a.55.55,0,0,1,.13.05h0a1.66,1.66,0,0,1,.45.31h0a2.32,2.32,0,0,1,.7,1.82h0a2.36,2.36,0,0,1-.6,1.6h0c-.16.17-.14.29.05.34h0a1.15,1.15,0,0,0,.51,0h0a2.47,2.47,0,0,0,1.63-.57h0a3,3,0,0,0,.81-2h0a2.61,2.61,0,0,0-.76-2Zm20.53.66h0c-.19-.65-.75-.91-1.69-.77h0a4.56,4.56,0,0,0-2,.76h0a5,5,0,0,0-1.21,1.21h0q.67-3.14,1.82-7.63h0c.07-.28-.26-.35-1-.22h0a3.41,3.41,0,0,0-.92.29h0q-.45.21-.48.36h0a134.14,134.14,0,0,0-3.35,16.68h0c0,.2.34.22,1.11,0h0c.75-.16,1.18-.36,1.29-.58h0c.07-.17.39-1.1,1-2.78h0c.58-1.68,1.11-3.06,1.59-4.13h0a12.67,12.67,0,0,1,1.46-2.62h0a4,4,0,0,1,.14,1h0a22.64,22.64,0,0,1-.35,3.46h0a23.4,23.4,0,0,1-.75,2.72h0a10.76,10.76,0,0,0-.55,2.74h0q0,.14.39.15h0a3.24,3.24,0,0,0,.82-.09h0c.8-.16,1.2-.4,1.22-.71h0a17.11,17.11,0,0,1,.84-3.5h0a15.75,15.75,0,0,0,.5-2.3h0c.12-.82.2-1.51.25-2.08h0a5.7,5.7,0,0,0-.1-2Zm33.1,10.3Zm-1.66-2.37h0A28.19,28.19,0,0,0,199.78,66h0a15.06,15.06,0,0,0,2.85-6h0a3.4,3.4,0,0,0-.2-2.37h0c-.37-.77-1.14-1-2.3-.87h0a5.06,5.06,0,0,0-3.1,1.66h0A8.64,8.64,0,0,0,195.58,61h0a17.5,17.5,0,0,0-.84,3.05h0c-.05.27.28.35,1,.23h0a4.22,4.22,0,0,0,.91-.3h0c.32-.14.48-.26.5-.36h0a12.31,12.31,0,0,1,2-5.18h0a3.64,3.64,0,0,1,.49-.56h0a.11.11,0,0,0,.07,0h0a2.37,2.37,0,0,1,.65,2.07h0A10.2,10.2,0,0,1,199.4,63h0a15.51,15.51,0,0,1-1.63,2.85h0a21.5,21.5,0,0,1-2.1,2.52h0q-.3.31-1.26,1.23h0c-.54.51-.94.93-1.23,1.26h0c-.16.19-.31.38-.45.58h0c-.1.14,0,.22.37.23h0a2.21,2.21,0,0,0,.59,0h0a3.87,3.87,0,0,1,1.18,0h0l1.51.14h0a8.12,8.12,0,0,0,3.58-.36h0a2.15,2.15,0,0,0,.55-.27h0c.27-.16.33-.29.16-.39h0c-.25-.17-.74-.13-1.46.11h-.59c-.21,0-.66-.05-1.35-.13h0a12.3,12.3,0,0,0-1.85-.08h0a11.37,11.37,0,0,1,1.06-1.1h0c.61-.57,1-.93,1.11-1.06ZM218.7,56.73h0l-.83.28h0a6.3,6.3,0,0,1-.73.2h0a2.94,2.94,0,0,0-1.62.58h0q-.26.23.06.33h0a1.19,1.19,0,0,0,.5,0h0a7.85,7.85,0,0,0,1.36-.28h0c-.4,1.59-.92,3.86-1.58,6.8h0q-1,4.72-1.54,6.8h0c-.06.27.26.34,1,.22h0a5.31,5.31,0,0,0,.93-.29h0c.31-.14.47-.27.5-.38h0c.33-1.34.86-3.69,1.61-7.06h0q1-4.53,1.65-7.08h0q.07-.3-.54-.27h0a3.53,3.53,0,0,0-.75.12Z"/></g></g></g></svg>